STARTFONT 2.1
FONT -FontForge-Federation-Medium-R-Normal--22-210-75-75-P-149-ISO10646-1
SIZE 21 75 75
FONTBOUNDINGBOX 38 25 -1 -5
COMMENT "Generated by fontforge, http://fontforge.sourceforge.net"
COMMENT "Generated by Metamorphosis Professional 2.04"
STARTPROPERTIES 39
FOUNDRY "FontForge"
FAMILY_NAME "Federation"
WEIGHT_NAME "Medium"
SLANT "R"
SETWIDTH_NAME "Normal"
ADD_STYLE_NAME ""
PIXEL_SIZE 22
POINT_SIZE 210
RESOLUTION_X 75
RESOLUTION_Y 75
SPACING "P"
AVERAGE_WIDTH 149
CHARSET_REGISTRY "ISO10646"
CHARSET_ENCODING "1"
FONTNAME_REGISTRY ""
CHARSET_COLLECTIONS "Symbol ISO10646-1"
FONT_NAME "Federation"
FACE_NAME "Federation"
COPYRIGHT "Generated by Metamorphosis Professional 2.04"
FONT_VERSION "Altsys Metamorphosis:8/22/94"
FONT_ASCENT 18
FONT_DESCENT 4
UNDERLINE_POSITION -3
UNDERLINE_THICKNESS 1
X_HEIGHT 10
CAP_HEIGHT 14
RAW_ASCENT 800
RAW_DESCENT 200
NORM_SPACE 12
RELATIVE_WEIGHT 50
RELATIVE_SETWIDTH 50
SUPERSCRIPT_X 0
SUPERSCRIPT_Y 0
SUPERSCRIPT_SIZE 2
SUBSCRIPT_X 0
SUBSCRIPT_Y 0
SUBSCRIPT_SIZE 2
AVG_LOWERCASE_WIDTH 167
AVG_UPPERCASE_WIDTH 202
ENDPROPERTIES
CHARS 153
STARTCHAR space
ENCODING 32
SWIDTH 525 0
DWIDTH 12 0
BBX 1 1 0 0
BITMAP
00
ENDCHAR
STARTCHAR exclam
ENCODING 33
SWIDTH 198 0
DWIDTH 4 0
BBX 2 15 1 0
BITMAP
C0
C0
C0
C0
C0
C0
C0
C0
C0
C0
C0
C0
00
C0
C0
ENDCHAR
STARTCHAR quotedbl
ENCODING 34
SWIDTH 344 0
DWIDTH 8 0
BBX 5 1 1 11
BITMAP
D8
ENDCHAR
STARTCHAR numbersign
ENCODING 35
SWIDTH 665 0
DWIDTH 15 0
BBX 13 11 1 6
BITMAP
0040
00F8
7FF0
3FF8
3FF8
7FE0
FFE0
7FF0
03E0
01C0
0080
ENDCHAR
STARTCHAR dollar
ENCODING 36
SWIDTH 1039 0
DWIDTH 23 0
BBX 21 19 1 -2
BITMAP
007000
007000
3FFFE0
7FFFF0
E07078
E07038
E07038
F07000
7FFFE0
7FFFF0
07FFF8
007038
E07038
E07038
F07078
7FFFF0
3FFFE0
007000
007000
ENDCHAR
STARTCHAR percent
ENCODING 37
SWIDTH 1301 0
DWIDTH 29 0
BBX 27 17 1 -1
BITMAP
1FC18000
7FF38000
FFF38000
E0330000
E03F0000
E03F0000
E0367F80
E03FFFC0
FFFFE3E0
7FED80E0
1F9F80E0
001F80E0
001B80E0
001980E0
0039FFC0
0038FFC0
00301C00
ENDCHAR
STARTCHAR ampersand
ENCODING 38
SWIDTH 1035 0
DWIDTH 23 0
BBX 21 15 1 0
BITMAP
07FF80
1E07C0
3000E0
380070
3C0070
3F0000
FF8000
47E000
83F838
40FE78
403FF8
401FF0
6007E0
7FFFE0
3FF840
ENDCHAR
STARTCHAR quotesingle
ENCODING 39
SWIDTH 210 0
DWIDTH 5 0
BBX 1 1 2 11
BITMAP
00
ENDCHAR
STARTCHAR parenleft
ENCODING 40
SWIDTH 330 0
DWIDTH 7 0
BBX 6 18 7 -2
BITMAP
04
04
1C
1C
1C
18
18
10
20
20
20
60
60
E0
20
10
08
04
ENDCHAR
STARTCHAR parenright
ENCODING 41
SWIDTH 330 0
DWIDTH 7 0
BBX 5 20 0 -3
BITMAP
80
C0
E0
10
08
08
08
08
08
08
08
08
08
08
08
08
08
10
E0
80
ENDCHAR
STARTCHAR asterisk
ENCODING 42
SWIDTH 361 0
DWIDTH 5 0
BBX 7 7 0 8
BITMAP
06
78
38
38
F8
78
20
ENDCHAR
STARTCHAR plus
ENCODING 43
SWIDTH 487 0
DWIDTH 11 0
BBX 6 6 0 5
BITMAP
FC
FC
FC
1C
1C
7C
ENDCHAR
STARTCHAR comma
ENCODING 44
SWIDTH 192 0
DWIDTH 4 0
BBX 3 5 1 -3
BITMAP
E0
E0
E0
60
40
ENDCHAR
STARTCHAR hyphen
ENCODING 45
SWIDTH 449 0
DWIDTH 10 0
BBX 8 2 0 6
BITMAP
FF
FF
ENDCHAR
STARTCHAR period
ENCODING 46
SWIDTH 192 0
DWIDTH 4 0
BBX 2 2 1 0
BITMAP
C0
C0
ENDCHAR
STARTCHAR slash
ENCODING 47
SWIDTH 321 0
DWIDTH 7 0
BBX 8 18 0 -2
BITMAP
03
07
06
06
0E
0C
0C
1C
18
18
38
30
30
70
60
60
E0
C0
ENDCHAR
STARTCHAR zero
ENCODING 48
SWIDTH 1023 0
DWIDTH 23 0
BBX 21 15 1 0
BITMAP
1FFFC0
7FFFE0
7C03F0
E00070
E00070
E00070
E00070
E00070
E00030
E00038
E00038
F00038
7FFFF0
3FFFF0
0FFF80
ENDCHAR
STARTCHAR one
ENCODING 49
SWIDTH 1004 0
DWIDTH 22 0
BBX 10 15 5 0
BITMAP
07C0
0FC0
3FC0
7DC0
F1C0
61C0
01C0
01C0
01C0
01C0
01C0
01C0
01C0
01C0
01C0
ENDCHAR
STARTCHAR two
ENCODING 50
SWIDTH 1004 0
DWIDTH 22 0
BBX 20 15 1 0
BITMAP
1FFFC0
7FFFE0
7C03E0
E00070
E00070
000070
000070
07FFE0
3FFFE0
7FFF80
F00000
E00000
FFFFF0
FFFFF0
FFFFF0
ENDCHAR
STARTCHAR three
ENCODING 51
SWIDTH 1054 0
DWIDTH 23 0
BBX 20 15 2 0
BITMAP
3FFF80
FFFFC0
F807C0
E000E0
C000E0
0001E0
01FFC0
01FFC0
0003E0
0000E0
C00070
E00070
FFFFE0
7FFFE0
3FFF80
ENDCHAR
STARTCHAR four
ENCODING 52
SWIDTH 1004 0
DWIDTH 22 0
BBX 19 15 2 0
BITMAP
000780
000F80
003F80
007B80
01E380
03C380
0F8380
1E0380
3C0380
F00380
FFFFE0
FFFFE0
000380
000380
000380
ENDCHAR
STARTCHAR five
ENCODING 53
SWIDTH 1054 0
DWIDTH 23 0
BBX 21 15 1 0
BITMAP
FFFFE0
FFFFE0
E00000
E00000
FFFF80
FFFFE0
FFFFE0
E000F0
000070
000038
E00038
F00078
7FFFF0
7FFFF0
0FFFC0
ENDCHAR
STARTCHAR six
ENCODING 54
SWIDTH 1054 0
DWIDTH 23 0
BBX 21 15 1 0
BITMAP
1FFFC0
7FFFE0
7801F0
E00070
E00070
E7FE00
FFFFC0
FFFFF0
F000F0
E00038
E00038
700038
7FFFF8
7FFFF0
1FFFC0
ENDCHAR
STARTCHAR seven
ENCODING 55
SWIDTH 1004 0
DWIDTH 22 0
BBX 22 15 0 0
BITMAP
FFFFFC
FFFFFC
000078
0000F0
0001E0
000380
000F00
001E00
003C00
007800
01E000
03C000
078000
0F0000
1E0000
ENDCHAR
STARTCHAR eight
ENCODING 56
SWIDTH 1004 0
DWIDTH 22 0
BBX 20 15 1 0
BITMAP
3FFFC0
7FFFF0
7000F0
E00070
E00070
700070
7FFFE0
3FFFE0
7801F0
E00070
E00070
F00070
7FFFF0
7FFFE0
1FFFC0
ENDCHAR
STARTCHAR nine
ENCODING 57
SWIDTH 1004 0
DWIDTH 22 0
BBX 20 15 1 0
BITMAP
3FFFC0
7FFFE0
7800F0
E00070
E00070
E00070
7C03F0
7FFFF0
1FFFF0
000070
E00070
700070
7FFFE0
3FFFE0
0FFF80
ENDCHAR
STARTCHAR colon
ENCODING 58
SWIDTH 192 0
DWIDTH 4 0
BBX 2 10 1 0
BITMAP
C0
C0
00
00
00
00
00
00
C0
C0
ENDCHAR
STARTCHAR semicolon
ENCODING 59
SWIDTH 192 0
DWIDTH 4 0
BBX 3 13 1 -3
BITMAP
E0
E0
00
00
00
00
00
00
E0
E0
E0
60
40
ENDCHAR
STARTCHAR less
ENCODING 60
SWIDTH 385 0
DWIDTH 8 0
BBX 8 9 0 2
BITMAP
01
07
1E
78
F0
3C
0E
07
01
ENDCHAR
STARTCHAR equal
ENCODING 61
SWIDTH 449 0
DWIDTH 10 0
BBX 8 5 0 4
BITMAP
FF
FF
00
FF
FF
ENDCHAR
STARTCHAR greater
ENCODING 62
SWIDTH 379 0
DWIDTH 8 0
BBX 8 9 0 2
BITMAP
80
E0
78
3E
0F
3C
F0
E0
80
ENDCHAR
STARTCHAR question
ENCODING 63
SWIDTH 910 0
DWIDTH 20 0
BBX 18 16 1 0
BITMAP
3FFE00
7FFF00
FFFF80
E00180
E000C0
000080
000080
00FF80
01FF00
03F800
030000
030000
030000
000000
030000
030000
ENDCHAR
STARTCHAR at
ENCODING 64
SWIDTH 948 0
DWIDTH 21 0
BBX 15 9 4 4
BITMAP
7FF8
800E
81FE
8EF8
9FF8
BFF8
FFFC
7FFC
1FF0
ENDCHAR
STARTCHAR A
ENCODING 65
SWIDTH 984 0
DWIDTH 22 0
BBX 22 15 0 0
BITMAP
007800
00FC00
00EE00
01CE00
01C700
038780
078380
0703C0
0E01C0
0FFFE0
1FFFF0
3FFFF0
380078
700038
F0001C
ENDCHAR
STARTCHAR B
ENCODING 66
SWIDTH 1023 0
DWIDTH 23 0
BBX 21 15 1 0
BITMAP
FFFFC0
FFFFE0
E001F0
E00070
E00070
E000F0
FFFFE0
FFFFF0
E000F0
E00038
E00038
E00078
FFFFF0
FFFFF0
FFFFC0
ENDCHAR
STARTCHAR C
ENCODING 67
SWIDTH 1098 0
DWIDTH 24 0
BBX 22 15 1 0
BITMAP
1FFFE0
7FFFF0
780078
E00038
E00038
E00000
E00000
E00000
E00000
E00000
E0001C
F0001C
7FFFFC
7FFFF8
1FFFE0
ENDCHAR
STARTCHAR D
ENCODING 68
SWIDTH 1039 0
DWIDTH 23 0
BBX 20 15 2 0
BITMAP
FFFF80
FFFFE0
C003E0
C000F0
C00070
C00070
C00070
C00070
C00070
C00070
C00070
C00070
FFFFE0
FFFFC0
FFFF80
ENDCHAR
STARTCHAR E
ENCODING 69
SWIDTH 873 0
DWIDTH 19 0
BBX 17 15 1 0
BITMAP
FFFF80
FFFF80
E00000
E00000
E00000
E00000
FFFF00
FFFF00
E00000
E00000
E00000
E00000
FFFF80
FFFF80
FFFF80
ENDCHAR
STARTCHAR F
ENCODING 70
SWIDTH 873 0
DWIDTH 19 0
BBX 17 15 1 0
BITMAP
FFFF80
FFFF80
E00000
E00000
E00000
E00000
FFFF00
FFFF00
E00000
E00000
E00000
E00000
E00000
E00000
E00000
ENDCHAR
STARTCHAR G
ENCODING 71
SWIDTH 1089 0
DWIDTH 24 0
BBX 22 15 1 0
BITMAP
1FFFE0
7FFFF0
780078
E00038
E00038
E00000
E00000
E03FFC
E03FFC
E03FFC
E0001C
70001C
7FFFFC
3FFFF8
0FFFE0
ENDCHAR
STARTCHAR H
ENCODING 72
SWIDTH 1015 0
DWIDTH 22 0
BBX 19 15 2 0
BITMAP
C00060
C00060
C00060
C00060
C00060
C00060
FFFFE0
FFFFE0
C00060
C00060
C00060
C00060
C00060
C00060
C00060
ENDCHAR
STARTCHAR I
ENCODING 73
SWIDTH 336 0
DWIDTH 7 0
BBX 3 15 2 0
BITMAP
E0
E0
E0
E0
E0
E0
E0
E0
E0
E0
E0
E0
E0
E0
E0
ENDCHAR
STARTCHAR J
ENCODING 74
SWIDTH 969 0
DWIDTH 21 0
BBX 19 15 1 0
BITMAP
0001C0
0000C0
0000E0
0000E0
0000E0
0000E0
0000E0
0000E0
0000E0
E000E0
E000E0
E000E0
FFFFE0
7FFFC0
1FFF00
ENDCHAR
STARTCHAR K
ENCODING 75
SWIDTH 981 0
DWIDTH 22 0
BBX 20 15 1 0
BITMAP
E001F0
E007C0
E01F00
E07C00
E1F000
FFC000
FF8000
FF8000
E3E000
E1F000
E07C00
E01E00
E00F80
E003C0
E001F0
ENDCHAR
STARTCHAR L
ENCODING 76
SWIDTH 845 0
DWIDTH 19 0
BBX 15 15 2 0
BITMAP
C000
C000
C000
C000
C000
C000
C000
C000
C000
C000
C000
C000
FFFE
FFFE
FFFE
ENDCHAR
STARTCHAR M
ENCODING 77
SWIDTH 1330 0
DWIDTH 29 0
BBX 27 15 1 0
BITMAP
F80007C0
FC000FC0
FE000FC0
EF001DC0
E70039C0
E38039C0
E3C071C0
E1C060C0
E0E0E0C0
E071C0E0
E07180E0
E03B80E0
E01F00E0
E00E00E0
E00E00E0
ENDCHAR
STARTCHAR N
ENCODING 78
SWIDTH 1018 0
DWIDTH 22 0
BBX 20 15 1 0
BITMAP
FC0070
FE0070
EF0070
E78070
E3C070
E1E070
E0F070
E07870
E03870
E01C70
E00E70
E00770
E003F0
E001F0
E000F0
ENDCHAR
STARTCHAR O
ENCODING 79
SWIDTH 1101 0
DWIDTH 24 0
BBX 22 15 1 0
BITMAP
1FFFC0
7FFFF0
7C01F0
700038
E00038
E00038
E00038
E0001C
E0001C
E0001C
E0001C
70001C
7FFFF8
3FFFF8
0FFFC0
ENDCHAR
STARTCHAR P
ENCODING 80
SWIDTH 952 0
DWIDTH 21 0
BBX 19 15 1 0
BITMAP
FFFF80
FFFFC0
E003E0
E000E0
E000E0
E000E0
FFFFE0
FFFFC0
FFFF00
E00000
E00000
E00000
E00000
E00000
E00000
ENDCHAR
STARTCHAR Q
ENCODING 81
SWIDTH 1101 0
DWIDTH 24 0
BBX 23 15 1 0
BITMAP
1FFFC0
7FFFF0
7C01F0
700038
E00038
E00038
E00038
E0001C
E00C1C
E01F9C
E007FC
7001FC
7FFFFC
3FFFFE
0FFFCC
ENDCHAR
STARTCHAR R
ENCODING 82
SWIDTH 1031 0
DWIDTH 23 0
BBX 21 15 1 0
BITMAP
FFFFC0
FFFFE0
FFFFF0
E00070
E00070
E000F0
FFFFE0
FFFFF0
E000F0
E00038
E00038
E00038
E00038
E00038
E00038
ENDCHAR
STARTCHAR S
ENCODING 83
SWIDTH 1060 0
DWIDTH 23 0
BBX 21 15 1 0
BITMAP
3FFFE0
7FFFF0
F800F8
E00038
E00038
F00000
7FFFE0
3FFFF0
0000F8
000038
E00018
700038
7FFFF8
3FFFF0
1FFFE0
ENDCHAR
STARTCHAR T
ENCODING 84
SWIDTH 929 0
DWIDTH 20 0
BBX 20 15 0 0
BITMAP
FFFFF0
FFFFF0
007000
007000
007000
007000
007000
007000
007000
007000
007000
007000
007000
007000
007000
ENDCHAR
STARTCHAR U
ENCODING 85
SWIDTH 1062 0
DWIDTH 23 0
BBX 21 15 1 0
BITMAP
E00018
E00018
E00018
E00018
E00018
E00018
E00018
E00018
E00018
E00038
600038
700038
7FFFF0
3FFFF0
0FFFC0
ENDCHAR
STARTCHAR V
ENCODING 86
SWIDTH 964 0
DWIDTH 21 0
BBX 21 15 1 0
BITMAP
E00078
E00070
7000E0
7800E0
3801C0
1C01C0
1C0380
0E0700
060700
070E00
038C00
039C00
01F800
00F800
00F000
ENDCHAR
STARTCHAR W
ENCODING 87
SWIDTH 1486 0
DWIDTH 33 0
BBX 33 15 0 0
BITMAP
F001C00380
7003E00700
7003E00700
3807600E00
3807700C00
1C0E301C00
1C0E381800
0C1C183800
0E1C183000
06381C7000
07380C6000
03700EE000
03F006C000
03E007C000
01E0078000
ENDCHAR
STARTCHAR X
ENCODING 88
SWIDTH 989 0
DWIDTH 22 0
BBX 23 15 0 0
BITMAP
78003C
1E0070
0F00E0
0783C0
03C780
01EF00
007E00
007E00
01EF00
03C780
0781C0
0F00E0
1E0078
38003C
F0001E
ENDCHAR
STARTCHAR Y
ENCODING 89
SWIDTH 939 0
DWIDTH 21 0
BBX 21 15 1 0
BITMAP
F00078
7801E0
3C03C0
1E0780
070F00
039E00
01F800
00F000
007000
007000
007000
007000
007000
007000
007000
ENDCHAR
STARTCHAR Z
ENCODING 90
SWIDTH 921 0
DWIDTH 20 0
BBX 18 15 1 0
BITMAP
FFFFC0
FFFFC0
000780
000F00
001E00
007800
00F000
01E000
03C000
078000
1E0000
3C0000
7FFFC0
FFFFC0
FFFFC0
ENDCHAR
STARTCHAR bracketleft
ENCODING 91
SWIDTH 266 0
DWIDTH 6 0
BBX 5 19 1 -2
BITMAP
F0
F8
F8
78
78
78
78
38
38
38
38
18
18
18
08
08
08
08
08
ENDCHAR
STARTCHAR backslash
ENCODING 92
SWIDTH 321 0
DWIDTH 7 0
BBX 8 18 0 -2
BITMAP
C0
E0
60
60
70
30
30
38
18
18
1C
0C
0C
0E
06
06
07
03
ENDCHAR
STARTCHAR bracketright
ENCODING 93
SWIDTH 266 0
DWIDTH 6 0
BBX 2 19 -1 -2
BITMAP
80
80
C0
C0
C0
C0
C0
C0
C0
C0
80
80
80
80
80
80
80
80
80
ENDCHAR
STARTCHAR asciicircum
ENCODING 94
SWIDTH 406 0
DWIDTH 9 0
BBX 10 11 -1 4
BITMAP
0C00
1E00
1E00
3F00
3F80
3F80
7EC0
7800
7000
E000
C000
ENDCHAR
STARTCHAR underscore
ENCODING 95
SWIDTH 408 0
DWIDTH 9 0
BBX 11 2 0 -1
BITMAP
FFE0
FFE0
ENDCHAR
STARTCHAR grave
ENCODING 96
SWIDTH 285 0
DWIDTH 6 0
BBX 6 4 0 12
BITMAP
60
F0
38
1C
ENDCHAR
STARTCHAR a
ENCODING 97
SWIDTH 904 0
DWIDTH 20 0
BBX 18 11 1 0
BITMAP
1FFE00
7FFF80
7FFF80
F001C0
7FFFC0
FFFF80
E00780
E00380
F00780
FFFF80
7FFF80
ENDCHAR
STARTCHAR b
ENCODING 98
SWIDTH 852 0
DWIDTH 19 0
BBX 17 15 1 0
BITMAP
E00000
E00000
E00000
E00000
FFFC00
FFFF00
FFFF00
E00380
E00380
E00380
E00380
E00380
F80F00
FFFF00
FFFC00
ENDCHAR
STARTCHAR c
ENCODING 99
SWIDTH 893 0
DWIDTH 20 0
BBX 18 11 1 0
BITMAP
1FFC00
7FFF00
FFFF00
E00380
E00380
E00000
E001C0
E001C0
F80780
7FFF80
3FFE00
ENDCHAR
STARTCHAR d
ENCODING 100
SWIDTH 852 0
DWIDTH 19 0
BBX 17 15 1 0
BITMAP
000380
000380
000380
000380
1FFF80
7FFF80
7FFF80
E00380
E00380
E00380
E00380
E00380
F80F80
7FFF80
3FFF80
ENDCHAR
STARTCHAR e
ENCODING 101
SWIDTH 910 0
DWIDTH 20 0
BBX 18 11 1 0
BITMAP
1FFC00
7FFF00
7FFF80
E00380
FFFF80
FFFFC0
E001C0
E001C0
F807C0
7FFF80
1FFF00
ENDCHAR
STARTCHAR f
ENCODING 102
SWIDTH 509 0
DWIDTH 11 0
BBX 11 15 0 0
BITMAP
0FE0
1FE0
3C00
3800
FFE0
FFE0
FFE0
3800
3800
3800
3800
3800
3800
3800
3800
ENDCHAR
STARTCHAR g
ENCODING 103
SWIDTH 865 0
DWIDTH 19 0
BBX 17 16 1 -5
BITMAP
1FFF80
7FFF80
7FFF80
E00380
E00380
E00380
E00380
E00380
781F80
7FFF80
1FFF80
000380
700380
7FFF00
3FFF00
0FF800
ENDCHAR
STARTCHAR h
ENCODING 104
SWIDTH 908 0
DWIDTH 20 0
BBX 18 15 1 0
BITMAP
E00000
E00000
E00000
E00000
EFFE00
FFFF80
FFFF80
F001C0
E001C0
E001C0
E001C0
E001C0
E001C0
E001C0
E001C0
ENDCHAR
STARTCHAR i
ENCODING 105
SWIDTH 283 0
DWIDTH 6 0
BBX 3 15 2 0
BITMAP
E0
E0
00
00
E0
E0
E0
E0
E0
E0
E0
E0
E0
E0
E0
ENDCHAR
STARTCHAR j
ENCODING 106
SWIDTH 341 0
DWIDTH 8 0
BBX 5 20 0 -5
BITMAP
18
18
00
00
18
18
18
18
18
18
18
18
18
18
18
18
38
F8
F0
E0
ENDCHAR
STARTCHAR k
ENCODING 107
SWIDTH 739 0
DWIDTH 16 0
BBX 16 15 1 0
BITMAP
E000
E000
E000
E000
E03E
E0F8
E1F0
FFC0
FF00
FF80
E3E0
E0F0
E078
E03C
E00F
ENDCHAR
STARTCHAR l
ENCODING 108
SWIDTH 296 0
DWIDTH 7 0
BBX 3 15 2 0
BITMAP
E0
E0
E0
E0
E0
E0
E0
E0
E0
E0
E0
E0
E0
E0
E0
ENDCHAR
STARTCHAR m
ENCODING 109
SWIDTH 1477 0
DWIDTH 33 0
BBX 31 11 1 0
BITMAP
EFFC3FF0
FFFFFFF8
FFFFFFFC
F003C01E
E003800E
E003800E
E003800E
E003800E
E003800E
E003800E
E003800E
ENDCHAR
STARTCHAR n
ENCODING 110
SWIDTH 869 0
DWIDTH 19 0
BBX 17 11 1 0
BITMAP
EFFC00
FFFF00
FFFF00
F00380
E00380
E00380
E00380
E00380
E00380
E00380
E00380
ENDCHAR
STARTCHAR o
ENCODING 111
SWIDTH 848 0
DWIDTH 19 0
BBX 17 11 1 0
BITMAP
1FFC00
7FFF00
FFFF00
E00380
E00380
E00380
E00380
E00380
F80F00
7FFF00
3FFC00
ENDCHAR
STARTCHAR p
ENCODING 112
SWIDTH 850 0
DWIDTH 19 0
BBX 17 15 1 -4
BITMAP
FFFC00
FFFF00
FFFF00
E00380
E00380
E00380
E00380
E00380
F80F00
FFFF00
FFFC00
E00000
E00000
E00000
E00000
ENDCHAR
STARTCHAR q
ENCODING 113
SWIDTH 857 0
DWIDTH 19 0
BBX 17 15 1 -4
BITMAP
1FFF80
7FFF80
7FFF80
E00380
E00380
E00380
E00380
E00380
780F80
7FFF80
1FFF80
000380
000380
000380
000380
ENDCHAR
STARTCHAR r
ENCODING 114
SWIDTH 850 0
DWIDTH 19 0
BBX 17 11 1 0
BITMAP
EFFC00
FFFF00
FFFF00
E00380
E00380
E00000
E00000
E00000
E00000
E00000
E00000
ENDCHAR
STARTCHAR s
ENCODING 115
SWIDTH 856 0
DWIDTH 19 0
BBX 17 11 1 0
BITMAP
3FFE00
7FFF00
FFFF80
E00380
FFFF80
7FFF00
E00780
E00380
F00780
7FFF00
3FFE00
ENDCHAR
STARTCHAR t
ENCODING 116
SWIDTH 761 0
DWIDTH 17 0
BBX 17 13 0 0
BITMAP
380000
380000
FFFC00
FFFC00
FFFC00
380000
380000
380000
380000
380780
3E0F00
1FFF00
0FFC00
ENDCHAR
STARTCHAR u
ENCODING 117
SWIDTH 862 0
DWIDTH 19 0
BBX 17 11 1 0
BITMAP
E00380
E00380
E00380
E00380
E00380
E00380
E00380
E00380
781F80
7FFF80
1FFF80
ENDCHAR
STARTCHAR v
ENCODING 118
SWIDTH 758 0
DWIDTH 17 0
BBX 17 11 0 0
BITMAP
E00380
700780
380700
380E00
1C0E00
0E1C00
0E3800
073800
037000
03E000
01E000
ENDCHAR
STARTCHAR w
ENCODING 119
SWIDTH 1380 0
DWIDTH 30 0
BBX 31 11 0 0
BITMAP
E003800E
7007C01C
3806C038
380EE038
1C1C6070
1C1870E0
0E3830E0
067019C0
07601F80
03E00F00
03C00F00
ENDCHAR
STARTCHAR x
ENCODING 120
SWIDTH 764 0
DWIDTH 17 0
BBX 17 11 1 0
BITMAP
F00F00
381E00
1C3C00
0F7000
07E000
03E000
07F000
1E3800
3C1C00
700F00
E00780
ENDCHAR
STARTCHAR y
ENCODING 121
SWIDTH 759 0
DWIDTH 17 0
BBX 17 16 0 -5
BITMAP
E00380
700700
380700
380E00
1C0C00
0C1C00
0E3800
073000
037000
03E000
01E000
03C000
078000
3F0000
3E0000
300000
ENDCHAR
STARTCHAR z
ENCODING 122
SWIDTH 754 0
DWIDTH 17 0
BBX 14 11 1 0
BITMAP
FFFC
FFFC
FFFC
00F0
01E0
0780
0F00
3C00
7800
FFFC
FFFC
ENDCHAR
STARTCHAR braceleft
ENCODING 123
SWIDTH 297 0
DWIDTH 7 0
BBX 7 20 -1 -3
BITMAP
0E
18
30
30
30
30
30
30
30
30
F0
38
38
38
38
38
38
38
30
10
ENDCHAR
STARTCHAR bar
ENCODING 124
SWIDTH 175 0
DWIDTH 4 0
BBX 2 19 1 -3
BITMAP
C0
C0
C0
C0
C0
C0
C0
C0
C0
C0
C0
C0
C0
C0
C0
C0
C0
C0
C0
ENDCHAR
STARTCHAR braceright
ENCODING 125
SWIDTH 297 0
DWIDTH 7 0
BBX 6 21 0 -4
BITMAP
E0
F0
18
18
18
18
18
18
18
1C
0C
18
18
18
18
18
18
18
F8
F0
E0
ENDCHAR
STARTCHAR asciitilde
ENCODING 126
SWIDTH 579 0
DWIDTH 13 0
BBX 8 2 3 8
BITMAP
0B
FE
ENDCHAR
STARTCHAR nonbreakingspace
ENCODING 160
SWIDTH 500 0
DWIDTH 11 0
BBX 1 1 0 0
BITMAP
00
ENDCHAR
STARTCHAR cent
ENCODING 162
SWIDTH 826 0
DWIDTH 18 0
BBX 15 14 2 0
BITMAP
0300
3FF8
7FFC
E30E
C306
C300
C300
C300
C306
C306
E30E
7FFC
3FF8
0300
ENDCHAR
STARTCHAR guillemotleft
ENCODING 171
SWIDTH 571 0
DWIDTH 13 0
BBX 10 10 1 1
BITMAP
08C0
19C0
3380
6700
CE00
4600
6300
3380
19C0
08C0
ENDCHAR
STARTCHAR hyphen.dup1
ENCODING 173
SWIDTH 449 0
DWIDTH 10 0
BBX 8 2 0 6
BITMAP
FF
FF
ENDCHAR
STARTCHAR degree
ENCODING 176
SWIDTH 286 0
DWIDTH 6 0
BBX 4 4 1 11
BITMAP
F0
90
90
F0
ENDCHAR
STARTCHAR plusminus
ENCODING 177
SWIDTH 461 0
DWIDTH 10 0
BBX 8 10 1 3
BITMAP
18
18
18
FF
FF
18
18
18
FF
FF
ENDCHAR
STARTCHAR twosuperior
ENCODING 178
SWIDTH 575 0
DWIDTH 13 0
BBX 12 11 1 0
BITMAP
FFE0
FFF0
00E0
01C0
0380
0700
0E00
1C00
7800
FFE0
FFE0
ENDCHAR
STARTCHAR threesuperior
ENCODING 179
SWIDTH 587 0
DWIDTH 13 0
BBX 14 11 0 0
BITMAP
E01C
3030
1860
0CC0
0780
0300
0300
0300
0300
0300
0300
ENDCHAR
STARTCHAR mu
ENCODING 181
SWIDTH 576 0
DWIDTH 13 0
BBX 12 16 0 -5
BITMAP
6180
6180
6180
6180
6180
6180
6180
6180
7380
7F90
7DF0
58E0
4000
E000
E000
E000
ENDCHAR
STARTCHAR cedilla
ENCODING 184
SWIDTH 219 0
DWIDTH 5 0
BBX 3 3 1 -3
BITMAP
60
E0
C0
ENDCHAR
STARTCHAR onesuperior
ENCODING 185
SWIDTH 935 0
DWIDTH 21 0
BBX 20 11 0 0
BITMAP
C06030
60F060
60F060
30F060
31F8C0
3998C0
1999C0
1F9D80
0F0D80
0F0F80
070F00
ENDCHAR
STARTCHAR guillemotright
ENCODING 187
SWIDTH 571 0
DWIDTH 13 0
BBX 10 10 2 1
BITMAP
C400
E600
7300
3980
1CC0
1880
3180
7300
E600
C400
ENDCHAR
STARTCHAR onequarter
ENCODING 188
SWIDTH 605 0
DWIDTH 13 0
BBX 13 11 0 0
BITMAP
E018
6030
7030
3060
3860
18E0
0CC0
0DC0
0780
0780
0300
ENDCHAR
STARTCHAR onehalf
ENCODING 189
SWIDTH 673 0
DWIDTH 15 0
BBX 13 11 1 0
BITMAP
C018
C018
C018
C018
C018
C018
C018
C018
E038
7FF0
3FE0
ENDCHAR
STARTCHAR threequarters
ENCODING 190
SWIDTH 622 0
DWIDTH 14 0
BBX 14 11 0 0
BITMAP
7038
3870
1CE0
0FC0
0780
0300
0780
0FC0
1CE0
3030
E01C
ENDCHAR
STARTCHAR Eth
ENCODING 208
SWIDTH 619 0
DWIDTH 14 0
BBX 13 11 0 0
BITMAP
0300
0780
0780
0DC0
0CC0
18E0
3860
3FE0
7FF0
6030
E018
ENDCHAR
STARTCHAR .null
ENCODING 215
SWIDTH 0 0
DWIDTH 0 0
BBX 1 1 0 0
BITMAP
00
ENDCHAR
STARTCHAR Yacute
ENCODING 221
SWIDTH 657 0
DWIDTH 14 0
BBX 13 11 1 0
BITMAP
3FF0
7FF8
E000
C000
C000
C3F8
C3F8
C018
E018
7FF0
3FF0
ENDCHAR
STARTCHAR Thorn
ENCODING 222
SWIDTH 617 0
DWIDTH 14 0
BBX 11 13 1 -1
BITMAP
0040
C0E0
C3C0
CF00
DE00
F800
F000
FC00
CE00
C780
C1C0
C0E0
0040
ENDCHAR
STARTCHAR eth
ENCODING 240
SWIDTH 646 0
DWIDTH 14 0
BBX 13 11 1 0
BITMAP
FFE0
FFF0
C030
C030
C030
FFE0
FFF0
C018
C018
FFF8
FFF0
ENDCHAR
STARTCHAR divide
ENCODING 247
SWIDTH 549 0
DWIDTH 12 0
BBX 11 9 0 1
BITMAP
0C00
0C00
0000
FFE0
FFE0
0000
0000
0C00
0C00
ENDCHAR
STARTCHAR yacute
ENCODING 253
SWIDTH 640 0
DWIDTH 14 0
BBX 12 11 1 0
BITMAP
C030
C030
C030
C030
C030
FFF0
FFF0
C030
C030
C030
C030
ENDCHAR
STARTCHAR thorn
ENCODING 254
SWIDTH 521 0
DWIDTH 11 0
BBX 10 11 1 0
BITMAP
C000
C000
C000
C000
C000
C000
C000
C000
C000
FFC0
FFC0
ENDCHAR
STARTCHAR Lslash
ENCODING 321
SWIDTH 664 0
DWIDTH 15 0
BBX 13 11 0 0
BITMAP
3FE0
7FF0
E038
C018
C000
C000
C000
C000
E008
7FF8
3FF0
ENDCHAR
STARTCHAR lslash
ENCODING 322
SWIDTH 657 0
DWIDTH 14 0
BBX 13 11 1 0
BITMAP
FFE0
FFF0
C038
C018
C018
C018
C018
C018
C038
FFF0
FFE0
ENDCHAR
STARTCHAR Scaron
ENCODING 352
SWIDTH 541 0
DWIDTH 12 0
BBX 10 11 1 0
BITMAP
FFC0
FFC0
C000
C000
C000
FFC0
FFC0
C000
C000
FFC0
FFC0
ENDCHAR
STARTCHAR scaron
ENCODING 353
SWIDTH 541 0
DWIDTH 12 0
BBX 10 11 1 0
BITMAP
FFC0
FFC0
C000
C000
C000
FFC0
FFC0
C000
C000
C000
C000
ENDCHAR
STARTCHAR Zcaron
ENCODING 381
SWIDTH 643 0
DWIDTH 14 0
BBX 12 11 1 0
BITMAP
F830
DC30
CE30
C630
C730
C3B0
C1B0
C0F0
C0F0
C070
C030
ENDCHAR
STARTCHAR zcaron
ENCODING 382
SWIDTH 666 0
DWIDTH 15 0
BBX 13 11 1 0
BITMAP
3FE0
7FF0
E038
C018
C018
C018
C018
C018
E038
7FF0
3FE0
ENDCHAR
STARTCHAR hungarumlaut
ENCODING 698
SWIDTH 433 0
DWIDTH 10 0
BBX 5 4 1 13
BITMAP
08
58
D0
A0
ENDCHAR
STARTCHAR ogonek
ENCODING 731
SWIDTH 233 0
DWIDTH 5 0
BBX 3 3 1 -3
BITMAP
C0
E0
60
ENDCHAR
STARTCHAR summation
ENCODING 931
SWIDTH 713 0
DWIDTH 16 0
BBX 15 18 0 -2
BITMAP
FFF8
7FF8
3818
1808
0C00
0E00
0700
0380
0180
00C0
0180
0300
0700
0E00
1C02
3804
7FFC
FFFC
ENDCHAR
STARTCHAR Omega
ENCODING 937
SWIDTH 768 0
DWIDTH 17 0
BBX 15 15 1 0
BITMAP
0FE0
1838
600C
600C
C006
C006
C006
C006
C006
600C
3008
9C32
8642
FE7E
FE7E
ENDCHAR
STARTCHAR pi
ENCODING 960
SWIDTH 549 0
DWIDTH 12 0
BBX 11 12 0 -1
BITMAP
3FE0
7FE0
D980
9900
1B00
1B00
1300
1300
3320
73E0
63C0
01C0
ENDCHAR
STARTCHAR quoteleft
ENCODING 8216
SWIDTH 192 0
DWIDTH 4 0
BBX 2 4 1 12
BITMAP
80
80
C0
C0
ENDCHAR
STARTCHAR quoteright
ENCODING 8217
SWIDTH 192 0
DWIDTH 4 0
BBX 2 4 1 11
BITMAP
C0
C0
40
40
ENDCHAR
STARTCHAR quotesinglbase
ENCODING 8218
SWIDTH 192 0
DWIDTH 4 0
BBX 2 3 1 0
BITMAP
C0
C0
40
ENDCHAR
STARTCHAR quotedblleft
ENCODING 8220
SWIDTH 361 0
DWIDTH 8 0
BBX 6 4 1 12
BITMAP
88
88
CC
CC
ENDCHAR
STARTCHAR quotedblright
ENCODING 8221
SWIDTH 367 0
DWIDTH 8 0
BBX 6 4 1 11
BITMAP
CC
CC
44
44
ENDCHAR
STARTCHAR quotedblbase
ENCODING 8222
SWIDTH 367 0
DWIDTH 8 0
BBX 6 3 1 0
BITMAP
CC
CC
44
ENDCHAR
STARTCHAR bullet
ENCODING 8226
SWIDTH 490 0
DWIDTH 11 0
BBX 7 8 1 2
BITMAP
38
FC
FE
FE
FE
FE
FC
38
ENDCHAR
STARTCHAR perthousand
ENCODING 8240
SWIDTH 1722 0
DWIDTH 38 0
BBX 36 17 1 -1
BITMAP
0003000000
3F83000000
FFE6000000
C066000000
C066000000
C06C000000
C06C000000
C06CFE1FC0
FFFFFFFFF0
3F9B01E030
001B01E030
001B01E030
003301E030
003301E030
0033FFFFF0
0070FE1FC0
0060000000
ENDCHAR
STARTCHAR guilsinglleft
ENCODING 8249
SWIDTH 350 0
DWIDTH 8 0
BBX 6 10 1 1
BITMAP
08
1C
38
70
E0
60
70
38
18
08
ENDCHAR
STARTCHAR guilsinglright
ENCODING 8250
SWIDTH 359 0
DWIDTH 8 0
BBX 6 10 2 1
BITMAP
40
E0
70
38
1C
1C
38
70
60
40
ENDCHAR
STARTCHAR partialdiff
ENCODING 8706
SWIDTH 494 0
DWIDTH 11 0
BBX 10 16 0 0
BITMAP
3C00
7F00
0380
0180
00C0
00C0
00C0
3CC0
72C0
61C0
C1C0
C180
C180
C300
6700
3C00
ENDCHAR
STARTCHAR Delta
ENCODING 8710
SWIDTH 612 0
DWIDTH 13 0
BBX 13 15 0 0
BITMAP
0200
0300
0300
0780
0580
05C0
08C0
08C0
1060
1060
2070
2030
4030
7FF8
FFF8
ENDCHAR
STARTCHAR product
ENCODING 8719
SWIDTH 823 0
DWIDTH 18 0
BBX 17 18 0 -2
BITMAP
FFFF80
7FFF00
300600
300600
300600
300600
300600
300600
300600
300600
300600
300600
300600
300600
300600
300600
300600
FC1F80
ENDCHAR
STARTCHAR radical
ENCODING 8730
SWIDTH 549 0
DWIDTH 12 0
BBX 11 20 0 0
BITMAP
0020
0020
0020
0020
0020
0040
0040
0040
1040
7840
D840
0C80
0C80
0E80
0680
0780
0380
0380
0100
0100
ENDCHAR
STARTCHAR infinity
ENCODING 8734
SWIDTH 713 0
DWIDTH 16 0
BBX 16 7 0 2
BITMAP
383C
7E7E
E3C3
C183
C7C3
7E7E
381C
ENDCHAR
STARTCHAR integral
ENCODING 8747
SWIDTH 274 0
DWIDTH 6 0
BBX 6 22 0 -2
BITMAP
1C
1C
30
30
30
30
30
30
30
30
30
30
30
30
30
30
10
10
10
20
E0
40
ENDCHAR
STARTCHAR approxequal
ENCODING 8776
SWIDTH 549 0
DWIDTH 12 0
BBX 11 6 1 3
BITMAP
7E60
FFC0
0180
6040
FDC0
8380
ENDCHAR
STARTCHAR notequal
ENCODING 8800
SWIDTH 549 0
DWIDTH 12 0
BBX 12 11 0 1
BITMAP
0080
0180
0380
FFF0
FFF0
0E00
0C00
FFF0
FFF0
3000
7000
ENDCHAR
STARTCHAR lessequal
ENCODING 8804
SWIDTH 448 0
DWIDTH 10 0
BBX 8 11 1 3
BITMAP
02
06
0E
3C
78
1E
06
02
00
FF
FF
ENDCHAR
STARTCHAR greaterequal
ENCODING 8805
SWIDTH 443 0
DWIDTH 10 0
BBX 8 11 1 3
BITMAP
40
E0
70
3C
1E
3C
70
E0
80
FF
FF
ENDCHAR
STARTCHAR lozenge
ENCODING 9674
SWIDTH 494 0
DWIDTH 11 0
BBX 10 16 0 0
BITMAP
0C00
1E00
1E00
3B00
3300
7180
6180
C0C0
E1C0
6180
7380
3300
3E00
1E00
1C00
0C00
ENDCHAR
STARTCHAR apple
ENCODING 61440
SWIDTH 790 0
DWIDTH 17 0
BBX 15 16 1 1
BITMAP
0020
00E0
00C0
0C30
3FFC
7FFC
7FF8
FFF8
FFF8
FFF8
7FF8
7FFE
7FFE
3FFC
3FFC
1FF8
ENDCHAR
STARTCHAR .notdef
ENCODING -1
SWIDTH 800 0
DWIDTH 18 0
BBX 15 17 1 0
BITMAP
FFFE
FFFE
C006
C006
C006
C006
C006
C006
C006
C006
C006
C006
C006
C006
C006
FFFE
FFFE
ENDCHAR
STARTCHAR nonmarkingreturn
ENCODING -1
SWIDTH 525 0
DWIDTH 12 0
BBX 1 1 0 0
BITMAP
00
ENDCHAR
ENDFONT
